<?xml version="1.0" encoding="utf-8"?>
<!-- Generator: Adobe Illustrator 25.0.0, SVG Export Plug-In . SVG Version: 6.00 Build 0)  -->
<svg version="1.1" xmlns="http://www.w3.org/2000/svg" xmlns:xlink="http://www.w3.org/1999/xlink" x="0px" y="0px"
	 viewBox="0 0 500 500" style="enable-background:new 0 0 500 500;" xml:space="preserve">
<style type="text/css">
	.st0{fill:#4B7986;}
	.st1{fill:#1B272A;}
	.st2{fill:#6096AC;}
	.st3{fill:#273D41;}
	.st4{fill:#FFFFFF;}
	.st5{fill:url(#SVGID_1_);}
	.st6{fill:url(#SVGID_2_);}
	.st7{fill:#131B1C;}
	.st8{fill:url(#SVGID_3_);}
	.st9{fill:url(#SVGID_4_);}
	.st10{fill:#192426;}
	.st11{fill:#A5E6F7;}
	.st12{clip-path:url(#SVGID_6_);}
	.st13{fill:#DEDEDE;}
	.st14{fill:#4A676C;}
	.st15{fill:#A7A7A7;}
	.st16{fill:#A5F163;}
</style>
<g id="OBJECTS">
	<path class="st0" d="M215.2,314.9c0,0,3.5,8.7,3,20.8c0,0,26.3,13.9,58.5,0c0,0-1.3-12.7,0-19.8L215.2,314.9z"/>
	<path class="st1" d="M367.4,365.8c-10.1-8.2-90.8-30-90.8-30l0,0c-19.7,3.9-39.9,3.9-59.6,0h0c0,0-80.7,21.8-90.8,30
		c-10.1,8.2-19.8,79.2-19.8,79.2h139.4h1.9h139.4C387.2,444.9,377.5,374,367.4,365.8z"/>
	<g>
		<path class="st2" d="M333.4,198.9c0,0,9.5-22.7,25.5-14.8c16,7.9,3.6,65.9-22.8,56.8C309.7,231.7,333.4,198.9,333.4,198.9z"/>
		<path class="st2" d="M166,198.9c0,0-9.5-22.7-25.5-14.8c-16,7.9-3.6,65.9,22.8,56.8C189.7,231.7,166,198.9,166,198.9z"/>
		<path class="st2" d="M245.9,328.4L245.9,328.4c-49.6,0-90.2-40.6-90.2-90.2v-54.8c0-49.6,40.6-90.2,90.2-90.2h0
			c49.6,0,90.2,40.6,90.2,90.2v54.8C336.1,287.9,295.5,328.4,245.9,328.4z"/>
		<g>
			<path class="st1" d="M282.5,77.1c-8.2-4.8-14.5,10.5-14.5,10.5s0.2-17.1-6.3-15.7c-6.5,1.4-1.1,14.5-1.1,14.5s-8.9-13.5-16.8-7.6
				c-7.9,5.9,10.5,11.9,10.5,11.9c-112.5-5.4-112.1,89.1-112.1,89.1c98.1,19.5,132.2-63.9,132.2-63.9
				C277.3,109.8,290.7,81.9,282.5,77.1z"/>
			<path class="st1" d="M254.2,90.7c0,0-61.5-12.1-96.8,21C157.5,111.8,196.5,92.9,254.2,90.7z"/>
		</g>
		<path class="st1" d="M272.6,119.5c0,0-10.8,50.7-72.4,70.7C200.2,190.2,250.1,154.5,272.6,119.5z"/>
		<path class="st1" d="M268.5,118.4c0,0,48.9,8.9,53.8,42.2c4.9,33.3,0.4,40.4,13.8,40.4c13.3,0,27.6-82.5-50.8-109.6
			C285.3,91.5,264.9,93.5,268.5,118.4z"/>
		<path class="st1" d="M268.1,112.7c0,0,11.8,44,39.2,49.3c27.4,5.3-9.9-36.4-9.9-36.4S281.8,103.8,268.1,112.7z"/>
		<path class="st1" d="M228,130.1c0,0-48.9,8.9-53.8,42.2c-4.9,33.3-0.4,40.4-13.8,40.4c-13.3,0-27.6-82.5,50.8-109.6
			C211.2,103.1,231.6,105.1,228,130.1z"/>
		<path class="st1" d="M228.4,124.3c0,0-11.8,44-39.2,49.3c-27.4,5.3,9.9-36.4,9.9-36.4S214.7,115.4,228.4,124.3z"/>
		<path class="st3" d="M268.1,174.7c0,0-4.2,11.1,24.6,6.7C321.6,177.1,284.8,161.1,268.1,174.7z"/>
		<path class="st3" d="M188.3,174.7c0,0-4.2,11.1,24.6,6.7C241.8,177.1,205,161.1,188.3,174.7z"/>
		<path class="st1" d="M232.8,244.9c0,0,0,8.9,16.9,9.8C249.7,254.6,234.2,257.4,232.8,244.9z"/>
		<g>
			<g>
				<circle class="st1" cx="284" cy="217.7" r="32.2"/>
				<circle class="st1" cx="205" cy="217.7" r="32.2"/>
			</g>
			<path class="st4" d="M233.8,222L233.8,222c-0.5,0-0.9-0.4-0.9-0.9v-5.8c0-0.5,0.4-0.9,0.9-0.9l0,0c0.5,0,0.9,0.4,0.9,0.9v5.8
				C234.7,221.6,234.3,222,233.8,222z"/>
			<path class="st4" d="M255.6,222L255.6,222c-0.5,0-0.9-0.4-0.9-0.9v-5.8c0-0.5,0.4-0.9,0.9-0.9l0,0c0.5,0,0.9,0.4,0.9,0.9v5.8
				C256.5,221.6,256.1,222,255.6,222z"/>
			<path class="st4" d="M234.7,217.7c0,0,7.8-7.5,19.9,0v1.9c0,0-11.1-6.9-19.9,0V217.7z"/>
			<linearGradient id="SVGID_1_" gradientUnits="userSpaceOnUse" x1="303.4599" y1="184.1131" x2="271.9242" y2="235.1922">
				<stop  offset="0" style="stop-color:#61ABEB"/>
				<stop  offset="1" style="stop-color:#61ABEB;stop-opacity:0"/>
			</linearGradient>
			<path class="st5" d="M263.5,236.5l29.9-47.8c0,0,6.5,1.3,11.1,5.9l-32.3,49.6C272.3,244.2,265.6,241.4,263.5,236.5z"/>
			<linearGradient id="SVGID_2_" gradientUnits="userSpaceOnUse" x1="222.9175" y1="184.1132" x2="191.3817" y2="235.1922">
				<stop  offset="0" style="stop-color:#61ABEB"/>
				<stop  offset="1" style="stop-color:#61ABEB;stop-opacity:0"/>
			</linearGradient>
			<path class="st6" d="M183,236.5l29.9-47.8c0,0,6.5,1.3,11.1,5.9l-32.3,49.6C191.7,244.2,185.1,241.4,183,236.5z"/>
		</g>
		<path class="st7" d="M223.6,273.1h44.3C267.9,273.1,236,276.8,223.6,273.1z"/>
		<path class="st7" d="M239,278.4h11.8C250.8,278.4,244,280.1,239,278.4z"/>
		<g>
			<linearGradient id="SVGID_3_" gradientUnits="userSpaceOnUse" x1="249.6927" y1="312.7921" x2="249.6927" y2="136.245">
				<stop  offset="0" style="stop-color:#000000;stop-opacity:0"/>
				<stop  offset="1" style="stop-color:#000000"/>
			</linearGradient>
			<path class="st8" d="M358.9,184.1c-5.2-2.6-9.7-1.9-13.4,0.1c4.5-25.6-4.1-73.4-60.3-92.8c0,0-0.5,0.1-1.4,0.2
				c1.7-6.7,2-12.7-1.4-14.6c-8.2-4.8-14.5,10.5-14.5,10.5s0.2-17.1-6.3-15.7c-6.5,1.4-1.1,14.5-1.1,14.5s-8.9-13.5-16.8-7.6
				c-7.9,5.9,10.5,11.9,10.5,11.9s-61.5-12.1-96.8,21c0,0,15.3-7.4,40.9-13.5c-56.4,21.8-56.2,81.5-56.2,81.5c2.7,0.5,5.2,1,7.8,1.3
				c0,0.5,0,1.1,0,1.6c-2.8-0.6-6-0.3-9.5,1.4c-14.4,7.1-5.8,54.8,15.3,57.6c1,25.2,12.4,47.8,30,63.6
				c-13.1-14.5-21.1-33.8-21.1-54.9c0-45.3,36.7-82.1,82.1-82.1c45.3,0,82.1,36.7,82.1,82.1c0,16.6-5,32.1-13.5,45.1
				c12.3-15,20-33.9,20.6-54.6c0,0,0,0,0,0C362.4,250.1,374.9,192,358.9,184.1z"/>
			<linearGradient id="SVGID_4_" gradientUnits="userSpaceOnUse" x1="250.6606" y1="333.6998" x2="250.6606" y2="305.7012">
				<stop  offset="0" style="stop-color:#000000;stop-opacity:0"/>
				<stop  offset="1" style="stop-color:#000000"/>
			</linearGradient>
			<path class="st9" d="M245.9,328.4L245.9,328.4c-23,0-44.1-8.8-60.1-23.1c15,16.7,36.8,27.2,61,27.2c28.7,0,53.9-14.7,68.6-37
				C298.9,315.6,273.8,328.4,245.9,328.4z"/>
		</g>
	</g>
	<g>
		<path class="st7" d="M128.7,147.7c25.5,3.8,165.4,23,250.8-3.8c7.9-2.5,8.4-15,0.7-19.4c-8.1-4.7-23.1-9.3-49.9-12.2
			c0,0-244.2-2.1-210.9,30.8C122.1,145.6,125.4,147.2,128.7,147.7z"/>
		<path class="st7" d="M285,40.8c-40,13.6-69.9,1.6-97.2-0.2c-18.9-1.2-24.4,43.8-26.1,71.6c44.4,14.1,91.8,8.5,136.7-0.2
			c13.3-2.6,26.7-5.2,40-8.1C335.5,67.5,319,29.3,285,40.8z"/>
		<path class="st10" d="M161.7,112.3c-0.3,5-0.5,9.5-0.6,13c-0.1,4.8,3.3,8.9,8,9.7c115.9,20.2,169.7-12,169.7-12
			c0.3-6.1,0.2-12.5-0.3-19c-13.4,2.8-26.7,5.4-40,8.1C253.5,120.9,206.1,126.5,161.7,112.3z"/>
	</g>
	<path class="st11" d="M301.2,136.1c9.1-1,16.2-8.5,16.3-17.6c0-0.7,0-1.5,0-2.2c-1-35.2-33.8-62.9-73.3-61.8
		c-39.5,1.1-70.7,30.5-69.7,65.8c0,0.1,0,0.1,0,0.2c0.3,9.3,7.8,16.8,17.1,17.3C222.9,139.6,263.2,140.3,301.2,136.1z"/>
	<path class="st7" d="M218.5,333.3c0.1-0.5-0.3-0.9-0.7-1c-7.9-1.2-65.4-9.9-67.8-0.3c-2.6,10.4,39.2,33.2,39.2,33.2
		s-30.2,15.8-24.8,17.3c5.3,1.5,99.2,65.9,99.2,65.9S215,355.2,218.5,333.3z"/>
	<path class="st7" d="M276,332.1c0,0,65.5-10.4,68.1,0c2.6,10.4-39.2,33.2-39.2,33.2s30.2,15.8,24.8,17.3
		c-5.3,1.5-99.2,65.9-99.2,65.9S281,352.2,276,332.1z"/>
	<g>
		<defs>
			<rect id="SVGID_5_" width="500" height="500"/>
		</defs>
		<clipPath id="SVGID_6_">
			<use xlink:href="#SVGID_5_"  style="overflow:visible;"/>
		</clipPath>
		<g class="st12">
			<g>
				<g>
					<path class="st13" d="M357.1,645.9H137.1c-1.4,0-2.6-1.2-2.6-2.6v-8.7c0-1.4,1.2-2.6,2.6-2.6h220.1c1.4,0,2.6,1.2,2.6,2.6v8.7
						C359.7,644.7,358.6,645.9,357.1,645.9z"/>
					<path class="st14" d="M390.6,379.8h-282c-6.7,0-12.1,5.4-12.1,12.1v172v28.2c0,6.7,5.4,12.1,12.1,12.1h282
						c6.7,0,12.1-5.4,12.1-12.1V564V392C402.7,385.3,397.3,379.8,390.6,379.8z"/>
					<path class="st7" d="M390.6,387.3h-282c-6.7,0-12.1,5.4-12.1,12.1v172v28.2c0,6.7,5.4,12.1,12.1,12.1h282
						c6.7,0,12.1-5.4,12.1-12.1v-28.2v-172C402.7,392.8,397.3,387.3,390.6,387.3z"/>
					<rect x="195.9" y="604.3" class="st15" width="107.4" height="27.6"/>
				</g>
			</g>
			<g>
				<image style="overflow:visible;" width="166" height="135" xlink:href="59A7ED2E.png"  transform="matrix(1 0 0 1 168 404)">
				</image>
			</g>
			<g>
				<rect x="204" y="461.1" class="st16" width="10.4" height="10.4"/>
				<rect x="224.2" y="440.4" class="st16" width="10.4" height="10.4"/>
				<rect x="234.5" y="440.4" class="st16" width="10.4" height="10.4"/>
				<rect x="244.9" y="440.4" class="st16" width="10.4" height="10.4"/>
				<rect x="255.3" y="440.4" class="st16" width="10.4" height="10.4"/>
				<rect x="265.6" y="440.4" class="st16" width="10.4" height="10.4"/>
				<rect x="214.4" y="461.1" class="st16" width="10.4" height="10.4"/>
				<rect x="214.4" y="450.7" class="st16" width="10.4" height="10.4"/>
				<rect x="224.7" y="450.7" class="st16" width="10.4" height="10.4"/>
				<rect x="266.2" y="450.7" class="st16" width="10.4" height="10.4"/>
				<rect x="276.5" y="450.7" class="st16" width="10.4" height="10.4"/>
				<rect x="276.5" y="461.1" class="st16" width="10.4" height="10.4"/>
				<rect x="266.2" y="471.4" class="st16" width="10.4" height="10.4"/>
				<rect x="276.5" y="471.4" class="st16" width="10.4" height="10.4"/>
				<rect x="286.9" y="461.1" class="st16" width="10.4" height="10.4"/>
				<rect x="214.4" y="471.4" class="st16" width="10.4" height="10.4"/>
				<rect x="224.7" y="481.8" class="st16" width="10.4" height="10.4"/>
				<rect x="224.7" y="471.4" class="st16" width="10.4" height="10.4"/>
				<rect x="235.1" y="450.7" class="st16" width="10.4" height="10.4"/>
				<rect x="235.1" y="461.1" class="st16" width="10.4" height="10.4"/>
				<rect x="235.1" y="471.4" class="st16" width="10.4" height="10.4"/>
				<rect x="245.5" y="450.7" class="st16" width="10.4" height="10.4"/>
				<rect x="245.5" y="461.1" class="st16" width="10.4" height="10.4"/>
				<rect x="255.8" y="450.7" class="st16" width="10.4" height="10.4"/>
				<rect x="255.8" y="461.1" class="st16" width="10.4" height="10.4"/>
				<rect x="255.8" y="471.4" class="st16" width="10.4" height="10.4"/>
				<rect x="235.1" y="481.8" class="st16" width="10.4" height="10.4"/>
				<rect x="245.5" y="481.8" class="st16" width="10.4" height="10.4"/>
				<rect x="255.8" y="481.8" class="st16" width="10.4" height="10.4"/>
				<rect x="266.2" y="481.8" class="st16" width="10.4" height="10.4"/>
				<rect x="224.7" y="492.2" class="st16" width="10.4" height="10.4"/>
				<rect x="245.5" y="492.2" class="st16" width="10.4" height="10.4"/>
				<rect x="266.2" y="492.2" class="st16" width="10.4" height="10.4"/>
			</g>
		</g>
	</g>
</g>
<g id="DESIGNED_BY_FREEPIK">
</g>
</svg>
